# xmcd
#
# Track frame offsets:
#	150
#	19363
#	44797
#	59049
#	73191
#	90573
#	111058
#	125662
#	143779
#	158121
#	167485
#	182007
#
# Disc length: 2749 seconds
#
# Revision: 1
# Processed by: cddbd v1.5.1PL2 Copyright (c) Steve Scherf et al.
# Submitted via: audiograbber 1.83.01
#
DISCID=b00abb0c
DTITLE=Morten Vestly - Hometown Heroes
DYEAR=2004
DGENRE=Norsk
TTITLE0=Hometown Heroes
TTITLE1=Crazy
TTITLE2=Why You Been Gone So Long
TTITLE3=Hey Baby
TTITLE4=Nashville Blues
TTITLE5=Lonesome Soul
TTITLE6=Nagged to Death
TTITLE7=8 second Hero
TTITLE8=Old Pipeliner
TTITLE9=Bad Luck
TTITLE10=Arlene
TTITLE11=You Gotta Know
EXTD=
EXTT0=
EXTT1=
EXTT2=
EXTT3=
EXTT4=
EXTT5=
EXTT6=
EXTT7=
EXTT8=
EXTT9=
EXTT10=
EXTT11=
PLAYORDER=
